<svg width="23" height="21" viewBox="0 0 23 21" fill="none" xmlns="http://www.w3.org/2000/svg">
<path d="M20.6444 8.34075H13.5444V1.91438C13.5444 1.12581 12.8379 0.486298 11.9666 0.486298H10.3889C9.51763 0.486298 8.81108 1.12581 8.81108 1.91438V8.34075H1.71108C0.839849 8.34075 0.133301 8.98026 0.133301 9.76883V11.1969C0.133301 11.9855 0.839849 12.625 1.71108 12.625H8.81108V19.0514C8.81108 19.8399 9.51763 20.4794 10.3889 20.4794H11.9666C12.8379 20.4794 13.5444 19.8399 13.5444 19.0514V12.625H20.6444C21.5156 12.625 22.2222 11.9855 22.2222 11.1969V9.76883C22.2222 8.98026 21.5156 8.34075 20.6444 8.34075Z" fill="#4775EC"/>
</svg>
