<svg width="25" height="22" viewBox="0 0 25 22" fill="none" xmlns="http://www.w3.org/2000/svg">
<path d="M22.9219 12.9473L24.9737 4.0098C25.1218 3.3645 24.6264 2.75 23.9579 2.75H6.91007L6.51224 0.82457C6.41311 0.344652 5.98655 0 5.49171 0H1.04167C0.466363 0 0 0.461699 0 1.03125V1.71875C0 2.2883 0.466363 2.75 1.04167 2.75H4.07478L7.12374 17.507C6.39432 17.9223 5.90278 18.7009 5.90278 19.5938C5.90278 20.9227 6.99097 22 8.33334 22C9.6757 22 10.7639 20.9227 10.7639 19.5938C10.7639 18.9203 10.4841 18.3118 10.0337 17.875H19.1329C18.6826 18.3118 18.4028 18.9203 18.4028 19.5938C18.4028 20.9227 19.491 22 20.8333 22C22.1757 22 23.2639 20.9227 23.2639 19.5938C23.2639 18.641 22.7045 17.8178 21.8933 17.4279L22.1327 16.3848C22.2809 15.7395 21.7854 15.125 21.117 15.125H9.46689L9.18282 13.75H21.9061C22.3925 13.75 22.8141 13.4168 22.9219 12.9473Z" fill="#FFFCFC"/>
</svg>
