<svg width="126" height="26" viewBox="0 0 126 26" fill="none" xmlns="http://www.w3.org/2000/svg">
<path d="M0.6875 16.1367C0.679688 15.9023 0.695312 15.7148 0.734375 15.5742C0.773438 15.4258 0.851562 15.3164 0.96875 15.2461C1.09375 15.168 1.26562 15.1172 1.48438 15.0938C1.70312 15.0703 1.99219 15.0586 2.35156 15.0586C2.71094 15.0586 3.01172 15.0703 3.25391 15.0938C3.49609 15.1172 3.6875 15.168 3.82812 15.2461C3.97656 15.3164 4.07812 15.4258 4.13281 15.5742C4.19531 15.7148 4.22266 15.9023 4.21484 16.1367L4.16797 17.5312C4.15234 17.8594 4.17578 18.1328 4.23828 18.3516C4.30859 18.5703 4.41797 18.7461 4.56641 18.8789C4.72266 19.0039 4.92188 19.0938 5.16406 19.1484C5.40625 19.2031 5.69922 19.2305 6.04297 19.2305C6.39453 19.2305 6.69141 19.2031 6.93359 19.1484C7.18359 19.0938 7.38281 19.0039 7.53125 18.8789C7.67969 18.7461 7.78516 18.5703 7.84766 18.3516C7.91016 18.1328 7.94141 17.8594 7.94141 17.5312L7.92969 16.7695C7.92969 16.4961 7.91797 16.25 7.89453 16.0312C7.87109 15.8047 7.82031 15.6016 7.74219 15.4219C7.67188 15.2422 7.5625 15.082 7.41406 14.9414C7.27344 14.8008 7.07422 14.6758 6.81641 14.5664L2.75 12.832C2.30469 12.6367 1.93359 12.418 1.63672 12.1758C1.33984 11.9336 1.10156 11.6562 0.921875 11.3438C0.75 11.0312 0.625 10.6797 0.546875 10.2891C0.46875 9.89844 0.421875 9.46094 0.40625 8.97656L0.289062 5.00391C0.273438 4.41797 0.367188 3.88281 0.570312 3.39844C0.78125 2.91406 1.11719 2.5 1.57812 2.15625C2.03906 1.8125 2.62891 1.54688 3.34766 1.35938C4.07422 1.16406 4.94531 1.06641 5.96094 1.06641C6.97656 1.06641 7.84375 1.16406 8.5625 1.35938C9.28906 1.54688 9.87891 1.8125 10.332 2.15625C10.793 2.5 11.1289 2.91406 11.3398 3.39844C11.5508 3.88281 11.6484 4.41797 11.6328 5.00391L11.5156 9.69141C11.5078 9.92578 11.4727 10.1172 11.4102 10.2656C11.3477 10.4062 11.2422 10.5156 11.0938 10.5938C10.9453 10.6641 10.7461 10.7109 10.4961 10.7344C10.2539 10.7578 9.95312 10.7695 9.59375 10.7695C9.22656 10.7695 8.91797 10.7578 8.66797 10.7344C8.42578 10.7109 8.23047 10.6641 8.08203 10.5938C7.93359 10.5156 7.82812 10.4062 7.76562 10.2656C7.70312 10.1172 7.66797 9.92578 7.66016 9.69141L7.51953 4.64062C7.51172 4.29688 7.47266 4.02344 7.40234 3.82031C7.33203 3.61719 7.23047 3.46094 7.09766 3.35156C6.97266 3.24219 6.8125 3.17188 6.61719 3.14062C6.42969 3.10156 6.21094 3.08203 5.96094 3.08203C5.71094 3.08203 5.48828 3.10156 5.29297 3.14062C5.10547 3.17188 4.94531 3.24219 4.8125 3.35156C4.6875 3.46094 4.58984 3.61719 4.51953 3.82031C4.44922 4.02344 4.41016 4.29688 4.40234 4.64062L4.27344 9.31641C4.26562 9.61328 4.27734 9.875 4.30859 10.1016C4.34766 10.3203 4.41406 10.5156 4.50781 10.6875C4.60938 10.8594 4.74219 11.0117 4.90625 11.1445C5.07031 11.2773 5.28125 11.3984 5.53906 11.5078L9.33594 13.1016C9.75 13.2734 10.0938 13.4609 10.3672 13.6641C10.6484 13.8594 10.8711 14.0977 11.0352 14.3789C11.1992 14.6602 11.3086 14.9961 11.3633 15.3867C11.4258 15.7773 11.4414 16.2539 11.4102 16.8164L11.3867 17.4727C11.3711 17.9805 11.2617 18.457 11.0586 18.9023C10.8555 19.3477 10.5391 19.7383 10.1094 20.0742C9.67969 20.4023 9.12891 20.6641 8.45703 20.8594C7.79297 21.0469 6.98828 21.1406 6.04297 21.1406C5.09766 21.1406 4.28906 21.043 3.61719 20.8477C2.95312 20.6523 2.40625 20.3867 1.97656 20.0508C1.55469 19.7148 1.24219 19.3203 1.03906 18.8672C0.835938 18.4141 0.730469 17.9336 0.722656 17.4258L0.6875 16.1367ZM14.1055 1.65234C14.1055 1.48828 14.1211 1.35156 14.1523 1.24219C14.1914 1.125 14.2773 1.03516 14.4102 0.972656C14.543 0.910156 14.7344 0.867188 14.9844 0.84375C15.2422 0.8125 15.582 0.796875 16.0039 0.796875C16.4258 0.796875 16.7617 0.8125 17.0117 0.84375C17.2695 0.867188 17.4648 0.910156 17.5977 0.972656C17.7305 1.03516 17.8125 1.125 17.8438 1.24219C17.8828 1.35156 17.9023 1.48828 17.9023 1.65234L17.7734 8.32031C17.9844 8.09375 18.1992 7.88672 18.418 7.69922C18.6367 7.51172 18.8711 7.35156 19.1211 7.21875C19.3711 7.07812 19.6367 6.96875 19.918 6.89062C20.1992 6.8125 20.5078 6.77344 20.8438 6.77344C21.3203 6.77344 21.7617 6.85938 22.168 7.03125C22.582 7.20312 22.9336 7.45312 23.2227 7.78125C23.5195 8.10938 23.7461 8.50781 23.9023 8.97656C24.0664 9.44531 24.1406 9.97656 24.125 10.5703L23.8438 20.332C23.8438 20.4805 23.8242 20.5977 23.7852 20.6836C23.7461 20.7695 23.6719 20.8359 23.5625 20.8828C23.4531 20.9297 23.2969 20.9609 23.0938 20.9766C22.8984 20.9922 22.6367 21 22.3086 21C21.9805 21 21.7148 20.9922 21.5117 20.9766C21.3164 20.9609 21.1641 20.9297 21.0547 20.8828C20.9531 20.8359 20.8828 20.7695 20.8438 20.6836C20.8047 20.5977 20.7852 20.4805 20.7852 20.332L20.5156 10.9102C20.5078 10.6055 20.4688 10.3516 20.3984 10.1484C20.3281 9.94531 20.2344 9.78516 20.1172 9.66797C20 9.55078 19.8594 9.46875 19.6953 9.42188C19.5391 9.375 19.3672 9.35156 19.1797 9.35156C18.8594 9.35156 18.5781 9.44922 18.3359 9.64453C18.0938 9.83203 17.8906 10.0508 17.7266 10.3008L17.5391 20.332C17.5391 20.4805 17.5195 20.5977 17.4805 20.6836C17.4414 20.7695 17.3672 20.8359 17.2578 20.8828C17.1484 20.9297 16.9922 20.9609 16.7891 20.9766C16.5938 20.9922 16.332 21 16.0039 21C15.6758 21 15.4102 20.9922 15.207 20.9766C15.0117 20.9609 14.8594 20.9297 14.75 20.8828C14.6484 20.8359 14.5781 20.7695 14.5391 20.6836C14.5 20.5977 14.4805 20.4805 14.4805 20.332L14.1055 1.65234ZM26.6211 10.3359C26.5977 9.71094 26.7227 9.17578 26.9961 8.73047C27.2773 8.27734 27.6523 7.90625 28.1211 7.61719C28.5977 7.32812 29.1445 7.11719 29.7617 6.98438C30.3789 6.84375 31.0117 6.77344 31.6602 6.77344C32.3086 6.77344 32.9414 6.84375 33.5586 6.98438C34.1758 7.11719 34.7188 7.32812 35.1875 7.61719C35.6641 7.90625 36.0391 8.27734 36.3125 8.73047C36.5938 9.17578 36.7227 9.71094 36.6992 10.3359L36.4297 17.7539C36.4062 18.3945 36.2578 18.9336 35.9844 19.3711C35.7109 19.8008 35.3555 20.1484 34.918 20.4141C34.4805 20.6719 33.9805 20.8594 33.418 20.9766C32.8555 21.0859 32.2734 21.1406 31.6719 21.1406C31.0625 21.1406 30.4766 21.0859 29.9141 20.9766C29.3516 20.8594 28.8477 20.6719 28.4023 20.4141C27.9648 20.1484 27.6094 19.8008 27.3359 19.3711C27.0625 18.9414 26.9141 18.4062 26.8906 17.7656L26.6211 10.3359ZM30.1016 17.8594C30.0938 18.1562 30.1172 18.4062 30.1719 18.6094C30.2344 18.8125 30.3281 18.9766 30.4531 19.1016C30.5859 19.2266 30.75 19.3164 30.9453 19.3711C31.1484 19.4258 31.3867 19.4531 31.6602 19.4531C32.207 19.4531 32.6055 19.3359 32.8555 19.1016C33.1133 18.8672 33.2344 18.4492 33.2188 17.8477L32.9844 10.1367C32.9766 9.80859 32.9375 9.54297 32.8672 9.33984C32.8047 9.13672 32.7148 8.98047 32.5977 8.87109C32.4805 8.76172 32.3438 8.69141 32.1875 8.66016C32.0312 8.62109 31.8555 8.60156 31.6602 8.60156C31.4648 8.60156 31.2891 8.62109 31.1328 8.66016C30.9766 8.69141 30.8398 8.76172 30.7227 8.87109C30.6055 8.98047 30.5117 9.13672 30.4414 9.33984C30.3789 9.54297 30.3438 9.80859 30.3359 10.1367L30.1016 17.8594ZM39.418 7.76953C39.4102 7.60547 39.4219 7.46875 39.4531 7.35938C39.4922 7.24219 39.5742 7.15234 39.6992 7.08984C39.8242 7.02734 40.0039 6.98438 40.2383 6.96094C40.4805 6.92969 40.8008 6.91406 41.1992 6.91406C41.5977 6.91406 41.9141 6.92969 42.1484 6.96094C42.3906 6.98438 42.5742 7.02734 42.6992 7.08984C42.8242 7.15234 42.9023 7.24219 42.9336 7.35938C42.9727 7.46875 42.9883 7.60547 42.9805 7.76953L42.9688 8.17969C43.1562 7.99219 43.3555 7.81641 43.5664 7.65234C43.7773 7.48047 44.0039 7.33203 44.2461 7.20703C44.4883 7.07422 44.7422 6.96875 45.0078 6.89062C45.2734 6.8125 45.5586 6.77344 45.8633 6.77344C46.4102 6.77344 46.9062 6.87109 47.3516 7.06641C47.7969 7.25391 48.1758 7.51953 48.4883 7.86328C48.8086 8.20703 49.0508 8.61719 49.2148 9.09375C49.3789 9.57031 49.4531 10.0898 49.4375 10.6523L49.2266 17.25C49.2031 17.9531 49.1094 18.5547 48.9453 19.0547C48.7812 19.5469 48.5547 19.9492 48.2656 20.2617C47.9844 20.5664 47.6406 20.7891 47.2344 20.9297C46.8281 21.0703 46.375 21.1406 45.875 21.1406C45.2266 21.1406 44.6602 21.0352 44.1758 20.8242C43.6914 20.6055 43.2812 20.3633 42.9453 20.0977L42.8398 25.2539C42.8398 25.4023 42.8203 25.5195 42.7812 25.6055C42.7422 25.6914 42.668 25.7578 42.5586 25.8047C42.4492 25.8516 42.2969 25.8828 42.1016 25.8984C41.9062 25.9141 41.6445 25.9219 41.3164 25.9219C40.9883 25.9219 40.7227 25.9141 40.5195 25.8984C40.3242 25.8828 40.1719 25.8516 40.0625 25.8047C39.9609 25.7578 39.8906 25.6914 39.8516 25.6055C39.8203 25.5195 39.8047 25.4023 39.8047 25.2539L39.418 7.76953ZM42.9805 18.5508C43.1602 18.6836 43.3672 18.8008 43.6016 18.9023C43.8438 18.9961 44.1133 19.043 44.4102 19.043C44.9102 19.043 45.3008 18.8906 45.582 18.5859C45.8711 18.2734 46.0078 17.8281 45.9922 17.25L45.8164 10.6523C45.8086 10.3867 45.7656 10.1602 45.6875 9.97266C45.6172 9.78516 45.5195 9.63672 45.3945 9.52734C45.2773 9.41016 45.1406 9.32812 44.9844 9.28125C44.8281 9.22656 44.6641 9.19922 44.4922 9.19922C44.2578 9.19922 44.0234 9.24609 43.7891 9.33984C43.5625 9.43359 43.3594 9.54688 43.1797 9.67969L42.9805 18.5508ZM52.168 7.76953C52.1602 7.60547 52.1719 7.46875 52.2031 7.35938C52.2422 7.24219 52.3242 7.15234 52.4492 7.08984C52.5742 7.02734 52.7539 6.98438 52.9883 6.96094C53.2305 6.92969 53.5508 6.91406 53.9492 6.91406C54.3477 6.91406 54.6641 6.92969 54.8984 6.96094C55.1406 6.98438 55.3242 7.02734 55.4492 7.08984C55.5742 7.15234 55.6523 7.24219 55.6836 7.35938C55.7227 7.46875 55.7383 7.60547 55.7305 7.76953L55.7188 8.17969C55.9062 7.99219 56.1055 7.81641 56.3164 7.65234C56.5273 7.48047 56.7539 7.33203 56.9961 7.20703C57.2383 7.07422 57.4922 6.96875 57.7578 6.89062C58.0234 6.8125 58.3086 6.77344 58.6133 6.77344C59.1602 6.77344 59.6562 6.87109 60.1016 7.06641C60.5469 7.25391 60.9258 7.51953 61.2383 7.86328C61.5586 8.20703 61.8008 8.61719 61.9648 9.09375C62.1289 9.57031 62.2031 10.0898 62.1875 10.6523L61.9766 17.25C61.9531 17.9531 61.8594 18.5547 61.6953 19.0547C61.5312 19.5469 61.3047 19.9492 61.0156 20.2617C60.7344 20.5664 60.3906 20.7891 59.9844 20.9297C59.5781 21.0703 59.125 21.1406 58.625 21.1406C57.9766 21.1406 57.4102 21.0352 56.9258 20.8242C56.4414 20.6055 56.0312 20.3633 55.6953 20.0977L55.5898 25.2539C55.5898 25.4023 55.5703 25.5195 55.5312 25.6055C55.4922 25.6914 55.418 25.7578 55.3086 25.8047C55.1992 25.8516 55.0469 25.8828 54.8516 25.8984C54.6562 25.9141 54.3945 25.9219 54.0664 25.9219C53.7383 25.9219 53.4727 25.9141 53.2695 25.8984C53.0742 25.8828 52.9219 25.8516 52.8125 25.8047C52.7109 25.7578 52.6406 25.6914 52.6016 25.6055C52.5703 25.5195 52.5547 25.4023 52.5547 25.2539L52.168 7.76953ZM55.7305 18.5508C55.9102 18.6836 56.1172 18.8008 56.3516 18.9023C56.5938 18.9961 56.8633 19.043 57.1602 19.043C57.6602 19.043 58.0508 18.8906 58.332 18.5859C58.6211 18.2734 58.7578 17.8281 58.7422 17.25L58.5664 10.6523C58.5586 10.3867 58.5156 10.1602 58.4375 9.97266C58.3672 9.78516 58.2695 9.63672 58.1445 9.52734C58.0273 9.41016 57.8906 9.32812 57.7344 9.28125C57.5781 9.22656 57.4141 9.19922 57.2422 9.19922C57.0078 9.19922 56.7734 9.24609 56.5391 9.33984C56.3125 9.43359 56.1094 9.54688 55.9297 9.67969L55.7305 18.5508ZM64.9648 2.16797C64.957 1.96484 64.9844 1.80078 65.0469 1.67578C65.1094 1.55078 65.2188 1.45312 65.375 1.38281C65.5391 1.3125 65.7578 1.26562 66.0312 1.24219C66.3125 1.21094 66.668 1.19531 67.0977 1.19531C67.4883 1.19531 67.8164 1.20703 68.082 1.23047C68.3477 1.24609 68.5625 1.27734 68.7266 1.32422C68.8984 1.37109 69.0273 1.4375 69.1133 1.52344C69.207 1.60937 69.2734 1.71484 69.3125 1.83984L72.5703 11.8008H72.6992L75.9102 1.83984C75.9414 1.71484 76 1.60937 76.0859 1.52344C76.1719 1.4375 76.2969 1.37109 76.4609 1.32422C76.625 1.27734 76.832 1.24609 77.082 1.23047C77.332 1.20703 77.6406 1.19531 78.0078 1.19531C78.4688 1.19531 78.8398 1.21094 79.1211 1.24219C79.4023 1.26562 79.6211 1.3125 79.7773 1.38281C79.9336 1.45312 80.0352 1.55078 80.082 1.67578C80.1367 1.80078 80.1602 1.96484 80.1523 2.16797L79.6367 20.2031C79.6289 20.3828 79.6094 20.5273 79.5781 20.6367C79.5469 20.7383 79.4766 20.8164 79.3672 20.8711C79.2656 20.9258 79.1172 20.9609 78.9219 20.9766C78.7266 20.9922 78.4609 21 78.125 21C77.7969 21 77.5312 20.9922 77.3281 20.9766C77.1328 20.9609 76.9844 20.9258 76.8828 20.8711C76.7812 20.8164 76.7109 20.7383 76.6719 20.6367C76.6406 20.5273 76.625 20.3828 76.625 20.2031L76.707 7.58203H76.5547L73.8594 16.9453C73.8125 17.0938 73.7617 17.2148 73.707 17.3086C73.6602 17.4023 73.5898 17.4766 73.4961 17.5312C73.4023 17.5781 73.2734 17.6094 73.1094 17.625C72.9531 17.6406 72.7422 17.6484 72.4766 17.6484C72.2422 17.6484 72.0547 17.6406 71.9141 17.625C71.7734 17.6016 71.6602 17.5664 71.5742 17.5195C71.4961 17.4648 71.4336 17.3945 71.3867 17.3086C71.3398 17.2148 71.293 17.0938 71.2461 16.9453L68.5859 7.58203H68.4336L68.4922 20.2031C68.4922 20.3828 68.4727 20.5273 68.4336 20.6367C68.4023 20.7383 68.332 20.8164 68.2227 20.8711C68.1211 20.9258 67.9727 20.9609 67.7773 20.9766C67.582 20.9922 67.3164 21 66.9805 21C66.6445 21 66.3789 20.9922 66.1836 20.9766C65.9883 20.9609 65.8359 20.9258 65.7266 20.8711C65.625 20.8164 65.5586 20.7383 65.5273 20.6367C65.4961 20.5273 65.4766 20.3828 65.4688 20.2031L64.9648 2.16797ZM82.8945 17.5898C82.8867 17.1523 82.9805 16.7695 83.1758 16.4414C83.3711 16.1055 83.6211 15.8125 83.9258 15.5625C84.2383 15.3125 84.5898 15.1016 84.9805 14.9297C85.3711 14.75 85.7578 14.5977 86.1406 14.4727C86.6328 14.3086 87.1523 14.168 87.6992 14.0508C88.2539 13.9336 88.793 13.832 89.3164 13.7461L89.2109 9.86719C89.1953 9.4375 89.0859 9.12109 88.8828 8.91797C88.6875 8.70703 88.375 8.60156 87.9453 8.60156C87.7422 8.60156 87.5586 8.61719 87.3945 8.64844C87.2305 8.67969 87.0859 8.74219 86.9609 8.83594C86.8438 8.92969 86.75 9.05859 86.6797 9.22266C86.6094 9.38672 86.5703 9.59766 86.5625 9.85547L86.4805 12.5156C86.4805 12.6641 86.457 12.7812 86.4102 12.8672C86.3711 12.9531 86.2891 13.0195 86.1641 13.0664C86.0391 13.1133 85.8594 13.1445 85.625 13.1602C85.3984 13.1758 85.0938 13.1836 84.7109 13.1836C84.3594 13.1836 84.0742 13.1758 83.8555 13.1602C83.6367 13.1445 83.4688 13.1133 83.3516 13.0664C83.2344 13.0195 83.1562 12.9531 83.1172 12.8672C83.0781 12.7812 83.0547 12.6641 83.0469 12.5156L82.9531 10.0195C82.9375 9.60547 83.0078 9.23828 83.1641 8.91797C83.3203 8.58984 83.5312 8.30859 83.7969 8.07422C84.0703 7.83203 84.3789 7.62891 84.7227 7.46484C85.0742 7.30078 85.4375 7.16797 85.8125 7.06641C86.1953 6.95703 86.5742 6.88281 86.9492 6.84375C87.3242 6.79688 87.668 6.77344 87.9805 6.77344C88.6523 6.77344 89.2891 6.85156 89.8906 7.00781C90.5 7.15625 91.0312 7.375 91.4844 7.66406C91.9375 7.95312 92.293 8.30859 92.5508 8.73047C92.8164 9.14453 92.9414 9.62109 92.9258 10.1602L92.5625 20.332C92.5547 20.4805 92.5312 20.5977 92.4922 20.6836C92.4609 20.7695 92.3906 20.8359 92.2812 20.8828C92.1719 20.9297 92.0156 20.9609 91.8125 20.9766C91.6172 20.9922 91.3555 21 91.0273 21C90.7227 21 90.4766 20.9922 90.2891 20.9766C90.1094 20.9609 89.9688 20.9297 89.8672 20.8828C89.7734 20.8359 89.707 20.7695 89.668 20.6836C89.6367 20.5977 89.6211 20.4805 89.6211 20.332L89.6094 19.9219C89.3984 20.0781 89.168 20.2305 88.918 20.3789C88.668 20.5195 88.4023 20.6484 88.1211 20.7656C87.8398 20.875 87.5391 20.9648 87.2188 21.0352C86.9062 21.1055 86.5781 21.1406 86.2344 21.1406C85.6875 21.1406 85.207 21.0664 84.793 20.918C84.3789 20.7617 84.0312 20.5547 83.75 20.2969C83.4766 20.0312 83.2695 19.7227 83.1289 19.3711C82.9883 19.0117 82.9141 18.6289 82.9062 18.2227L82.8945 17.5898ZM86.1055 17.8711C86.1055 18.1055 86.1406 18.3086 86.2109 18.4805C86.2812 18.6445 86.375 18.7812 86.4922 18.8906C86.6094 18.9922 86.7461 19.0703 86.9023 19.125C87.0664 19.1719 87.2422 19.1953 87.4297 19.1953C87.8828 19.1953 88.2734 19.1211 88.6016 18.9727C88.9297 18.8242 89.2109 18.6523 89.4453 18.457L89.3633 15.4453C88.9414 15.5156 88.5703 15.5977 88.25 15.6914C87.9297 15.7773 87.6445 15.875 87.3945 15.9844C87.0039 16.1641 86.6914 16.3633 86.457 16.582C86.2227 16.793 86.1055 17.0703 86.1055 17.4141V17.8711ZM96.3125 10.1484H95.6562C95.4531 10.1484 95.293 10.1328 95.1758 10.1016C95.0664 10.0703 94.9844 10.0117 94.9297 9.92578C94.875 9.83984 94.8398 9.72266 94.8242 9.57422C94.8164 9.41797 94.8125 9.21875 94.8125 8.97656C94.8125 8.75781 94.8164 8.58203 94.8242 8.44922C94.8398 8.30859 94.875 8.19922 94.9297 8.12109C94.9844 8.04297 95.0664 7.99219 95.1758 7.96875C95.293 7.9375 95.4531 7.92188 95.6562 7.92188H96.2539L96.1836 4.65234C96.1836 4.48828 96.1992 4.35156 96.2305 4.24219C96.2695 4.125 96.3555 4.03516 96.4883 3.97266C96.6211 3.91016 96.8125 3.86719 97.0625 3.84375C97.3203 3.8125 97.6602 3.79688 98.082 3.79688C98.5039 3.79688 98.8398 3.8125 99.0898 3.84375C99.3477 3.86719 99.543 3.91016 99.6758 3.97266C99.8086 4.03516 99.8906 4.125 99.9219 4.24219C99.9609 4.35156 99.9805 4.48828 99.9805 4.65234L99.8984 7.92188H100.508C100.711 7.92188 100.867 7.9375 100.977 7.96875C101.094 7.99219 101.18 8.04297 101.234 8.12109C101.289 8.19922 101.32 8.30859 101.328 8.44922C101.344 8.58203 101.352 8.75781 101.352 8.97656C101.352 9.21875 101.344 9.41797 101.328 9.57422C101.32 9.72266 101.289 9.83984 101.234 9.92578C101.18 10.0117 101.094 10.0703 100.977 10.1016C100.867 10.1328 100.711 10.1484 100.508 10.1484H99.8516L99.6172 20.332C99.6172 20.4805 99.5977 20.5977 99.5586 20.6836C99.5195 20.7695 99.4453 20.8359 99.3359 20.8828C99.2266 20.9297 99.0703 20.9609 98.8672 20.9766C98.6719 20.9922 98.4102 21 98.082 21C97.7539 21 97.4883 20.9922 97.2852 20.9766C97.0898 20.9609 96.9375 20.9297 96.8281 20.8828C96.7266 20.8359 96.6562 20.7695 96.6172 20.6836C96.5781 20.5977 96.5586 20.4805 96.5586 20.332L96.3125 10.1484ZM103.121 10.3359C103.098 9.71094 103.223 9.17578 103.496 8.73047C103.777 8.27734 104.152 7.90625 104.621 7.61719C105.098 7.32812 105.645 7.11719 106.262 6.98438C106.879 6.84375 107.512 6.77344 108.16 6.77344C108.824 6.77344 109.465 6.84375 110.082 6.98438C110.699 7.11719 111.242 7.32812 111.711 7.61719C112.18 7.90625 112.551 8.27734 112.824 8.73047C113.098 9.17578 113.223 9.71094 113.199 10.3359L113.082 13.9805C113.074 14.1289 113.047 14.2461 113 14.332C112.953 14.418 112.867 14.4844 112.742 14.5312C112.617 14.5781 112.441 14.6094 112.215 14.625C111.988 14.6406 111.695 14.6484 111.336 14.6484C110.969 14.6484 110.672 14.6406 110.445 14.625C110.219 14.6094 110.043 14.5781 109.918 14.5312C109.793 14.4844 109.707 14.418 109.66 14.332C109.621 14.2461 109.598 14.1289 109.59 13.9805L109.484 10.1367C109.477 9.80859 109.438 9.54297 109.367 9.33984C109.305 9.13672 109.215 8.98047 109.098 8.87109C108.98 8.76172 108.844 8.69141 108.688 8.66016C108.531 8.62109 108.355 8.60156 108.16 8.60156C107.965 8.60156 107.789 8.62109 107.633 8.66016C107.477 8.69141 107.34 8.76172 107.223 8.87109C107.105 8.98047 107.012 9.13672 106.941 9.33984C106.879 9.54297 106.844 9.80859 106.836 10.1367L106.602 17.8594C106.594 18.1562 106.617 18.4062 106.672 18.6094C106.734 18.8125 106.828 18.9766 106.953 19.1016C107.086 19.2266 107.25 19.3164 107.445 19.3711C107.648 19.4258 107.887 19.4531 108.16 19.4531C108.707 19.4531 109.102 19.3438 109.344 19.125C109.594 18.9062 109.719 18.5195 109.719 17.9648V17.6016C109.719 17.4531 109.738 17.332 109.777 17.2383C109.816 17.1367 109.891 17.0586 110 17.0039C110.117 16.9414 110.281 16.8984 110.492 16.875C110.703 16.8516 110.984 16.8398 111.336 16.8398C111.68 16.8398 111.957 16.8516 112.168 16.875C112.379 16.8984 112.539 16.9414 112.648 17.0039C112.766 17.0586 112.844 17.1328 112.883 17.2266C112.922 17.3203 112.941 17.4414 112.941 17.5898V17.8711C112.941 18.4883 112.805 19.0078 112.531 19.4297C112.258 19.8438 111.898 20.1797 111.453 20.4375C111.008 20.6875 110.5 20.8672 109.93 20.9766C109.359 21.0859 108.773 21.1406 108.172 21.1406C107.562 21.1406 106.977 21.0859 106.414 20.9766C105.852 20.8594 105.348 20.6719 104.902 20.4141C104.465 20.1484 104.109 19.8008 103.836 19.3711C103.562 18.9414 103.414 18.4062 103.391 17.7656L103.121 10.3359ZM115.801 1.65234C115.801 1.48828 115.816 1.35156 115.848 1.24219C115.887 1.125 115.973 1.03516 116.105 0.972656C116.238 0.910156 116.43 0.867188 116.68 0.84375C116.938 0.8125 117.277 0.796875 117.699 0.796875C118.121 0.796875 118.457 0.8125 118.707 0.84375C118.965 0.867188 119.16 0.910156 119.293 0.972656C119.426 1.03516 119.508 1.125 119.539 1.24219C119.578 1.35156 119.598 1.48828 119.598 1.65234L119.469 8.32031C119.68 8.09375 119.895 7.88672 120.113 7.69922C120.332 7.51172 120.566 7.35156 120.816 7.21875C121.066 7.07812 121.332 6.96875 121.613 6.89062C121.895 6.8125 122.203 6.77344 122.539 6.77344C123.016 6.77344 123.457 6.85938 123.863 7.03125C124.277 7.20312 124.629 7.45312 124.918 7.78125C125.215 8.10938 125.441 8.50781 125.598 8.97656C125.762 9.44531 125.836 9.97656 125.82 10.5703L125.539 20.332C125.539 20.4805 125.52 20.5977 125.48 20.6836C125.441 20.7695 125.367 20.8359 125.258 20.8828C125.148 20.9297 124.992 20.9609 124.789 20.9766C124.594 20.9922 124.332 21 124.004 21C123.676 21 123.41 20.9922 123.207 20.9766C123.012 20.9609 122.859 20.9297 122.75 20.8828C122.648 20.8359 122.578 20.7695 122.539 20.6836C122.5 20.5977 122.48 20.4805 122.48 20.332L122.211 10.9102C122.203 10.6055 122.164 10.3516 122.094 10.1484C122.023 9.94531 121.93 9.78516 121.812 9.66797C121.695 9.55078 121.555 9.46875 121.391 9.42188C121.234 9.375 121.062 9.35156 120.875 9.35156C120.555 9.35156 120.273 9.44922 120.031 9.64453C119.789 9.83203 119.586 10.0508 119.422 10.3008L119.234 20.332C119.234 20.4805 119.215 20.5977 119.176 20.6836C119.137 20.7695 119.062 20.8359 118.953 20.8828C118.844 20.9297 118.688 20.9609 118.484 20.9766C118.289 20.9922 118.027 21 117.699 21C117.371 21 117.105 20.9922 116.902 20.9766C116.707 20.9609 116.555 20.9297 116.445 20.8828C116.344 20.8359 116.273 20.7695 116.234 20.6836C116.195 20.5977 116.176 20.4805 116.176 20.332L115.801 1.65234Z" fill="#FAFAFA" fill-opacity="0.97"/>
</svg>
